<mxfile host="Electron" modified="2023-12-28T11:04:28.905Z" agent="Mozilla/5.0 (Windows NT 10.0; Win64; x64) AppleWebKit/537.36 (KHTML, like Gecko) draw.io/21.2.8 Chrome/112.0.5615.165 Electron/24.2.0 Safari/537.36" etag="gg9DmHRLr36n4i8OvCWb" version="21.2.8" type="device">
  <diagram name="Page-1" id="Ye4I-kRqJJzMl1YbwVDN">
    <mxGraphModel dx="-1452" dy="-1450" grid="1" gridSize="10" guides="1" tooltips="1" connect="1" arrows="1" fold="1" page="1" pageScale="1" pageWidth="827" pageHeight="1169" math="0" shadow="0">
      <root>
        <mxCell id="0" />
        <mxCell id="1" parent="0" />
        <mxCell id="6BjN83bHVvUFLkqBaeDq-1" value="&lt;b&gt;&lt;font color=&quot;#ffffff&quot; style=&quot;font-size: 16px;&quot; face=&quot;Verdana&quot;&gt;4&lt;/font&gt;&lt;/b&gt;" style="ellipse;whiteSpace=wrap;html=1;aspect=fixed;fillColor=#000000;" vertex="1" parent="1">
          <mxGeometry x="2770" y="2410" width="40" height="40" as="geometry" />
        </mxCell>
        <mxCell id="6BjN83bHVvUFLkqBaeDq-3" value="&lt;b&gt;&lt;font color=&quot;#ffffff&quot; style=&quot;font-size: 16px;&quot; face=&quot;Verdana&quot;&gt;2&lt;/font&gt;&lt;/b&gt;" style="ellipse;whiteSpace=wrap;html=1;aspect=fixed;fillColor=#000000;" vertex="1" parent="1">
          <mxGeometry x="2660" y="2480" width="40" height="40" as="geometry" />
        </mxCell>
        <mxCell id="6BjN83bHVvUFLkqBaeDq-4" value="&lt;b&gt;&lt;font color=&quot;#ffffff&quot; style=&quot;font-size: 16px;&quot; face=&quot;Verdana&quot;&gt;1&lt;/font&gt;&lt;/b&gt;" style="ellipse;whiteSpace=wrap;html=1;aspect=fixed;fillColor=#000000;" vertex="1" parent="1">
          <mxGeometry x="2600" y="2540" width="40" height="40" as="geometry" />
        </mxCell>
        <mxCell id="6BjN83bHVvUFLkqBaeDq-5" value="&lt;b&gt;&lt;font color=&quot;#ffffff&quot; style=&quot;font-size: 16px;&quot; face=&quot;Verdana&quot;&gt;3&lt;/font&gt;&lt;/b&gt;" style="ellipse;whiteSpace=wrap;html=1;aspect=fixed;fillColor=#000000;" vertex="1" parent="1">
          <mxGeometry x="2720" y="2540" width="40" height="40" as="geometry" />
        </mxCell>
        <mxCell id="6BjN83bHVvUFLkqBaeDq-6" value="&lt;b&gt;&lt;font color=&quot;#ffffff&quot; style=&quot;font-size: 16px;&quot; face=&quot;Verdana&quot;&gt;0&lt;/font&gt;&lt;/b&gt;" style="ellipse;whiteSpace=wrap;html=1;aspect=fixed;fillColor=#e51400;fontColor=#ffffff;strokeColor=#B20000;" vertex="1" parent="1">
          <mxGeometry x="2540" y="2600" width="40" height="40" as="geometry" />
        </mxCell>
        <mxCell id="6BjN83bHVvUFLkqBaeDq-7" value="&lt;b&gt;&lt;font color=&quot;#ffffff&quot; style=&quot;font-size: 16px;&quot; face=&quot;Verdana&quot;&gt;6&lt;/font&gt;&lt;/b&gt;" style="ellipse;whiteSpace=wrap;html=1;aspect=fixed;fillColor=#000000;" vertex="1" parent="1">
          <mxGeometry x="2880" y="2480" width="40" height="40" as="geometry" />
        </mxCell>
        <mxCell id="6BjN83bHVvUFLkqBaeDq-8" value="&lt;b&gt;&lt;font color=&quot;#ffffff&quot; style=&quot;font-size: 16px;&quot; face=&quot;Verdana&quot;&gt;5&lt;/font&gt;&lt;/b&gt;" style="ellipse;whiteSpace=wrap;html=1;aspect=fixed;fillColor=#000000;" vertex="1" parent="1">
          <mxGeometry x="2820" y="2540" width="40" height="40" as="geometry" />
        </mxCell>
        <mxCell id="6BjN83bHVvUFLkqBaeDq-9" value="&lt;b&gt;&lt;font color=&quot;#ffffff&quot; style=&quot;font-size: 16px;&quot; face=&quot;Verdana&quot;&gt;9&lt;/font&gt;&lt;/b&gt;" style="ellipse;whiteSpace=wrap;html=1;aspect=fixed;fillColor=#e51400;fontColor=#ffffff;strokeColor=#B20000;" vertex="1" parent="1">
          <mxGeometry x="2944" y="2540" width="40" height="40" as="geometry" />
        </mxCell>
        <mxCell id="6BjN83bHVvUFLkqBaeDq-10" value="&lt;b&gt;&lt;font color=&quot;#ffffff&quot; style=&quot;font-size: 16px;&quot; face=&quot;Verdana&quot;&gt;7&lt;/font&gt;&lt;/b&gt;" style="ellipse;whiteSpace=wrap;html=1;aspect=fixed;fillColor=#000000;" vertex="1" parent="1">
          <mxGeometry x="2890" y="2600" width="40" height="40" as="geometry" />
        </mxCell>
        <mxCell id="6BjN83bHVvUFLkqBaeDq-11" value="&lt;b&gt;&lt;font color=&quot;#ffffff&quot; style=&quot;font-size: 16px;&quot; face=&quot;Verdana&quot;&gt;8&lt;/font&gt;&lt;/b&gt;" style="ellipse;whiteSpace=wrap;html=1;aspect=fixed;fillColor=#e51400;fontColor=#ffffff;strokeColor=#B20000;" vertex="1" parent="1">
          <mxGeometry x="2950" y="2660" width="40" height="40" as="geometry" />
        </mxCell>
        <mxCell id="6BjN83bHVvUFLkqBaeDq-13" value="&lt;b&gt;&lt;font color=&quot;#ffffff&quot; style=&quot;font-size: 16px;&quot; face=&quot;Verdana&quot;&gt;11&lt;/font&gt;&lt;/b&gt;" style="ellipse;whiteSpace=wrap;html=1;aspect=fixed;fillColor=#000000;" vertex="1" parent="1">
          <mxGeometry x="3080" y="2600" width="40" height="40" as="geometry" />
        </mxCell>
        <mxCell id="6BjN83bHVvUFLkqBaeDq-15" value="&lt;b&gt;&lt;font color=&quot;#ffffff&quot; style=&quot;font-size: 16px;&quot; face=&quot;Verdana&quot;&gt;10&lt;/font&gt;&lt;/b&gt;" style="ellipse;whiteSpace=wrap;html=1;aspect=fixed;fillColor=#e51400;fontColor=#ffffff;strokeColor=#B20000;" vertex="1" parent="1">
          <mxGeometry x="3030" y="2660" width="40" height="40" as="geometry" />
        </mxCell>
        <mxCell id="6BjN83bHVvUFLkqBaeDq-16" value="&lt;b&gt;&lt;font color=&quot;#ffffff&quot; style=&quot;font-size: 16px;&quot; face=&quot;Verdana&quot;&gt;12&lt;/font&gt;&lt;/b&gt;" style="ellipse;whiteSpace=wrap;html=1;aspect=fixed;fillColor=#e51400;fontColor=#ffffff;strokeColor=#B20000;" vertex="1" parent="1">
          <mxGeometry x="3130" y="2660" width="40" height="40" as="geometry" />
        </mxCell>
        <mxCell id="6BjN83bHVvUFLkqBaeDq-17" value="" style="endArrow=classic;html=1;rounded=0;exitX=0;exitY=1;exitDx=0;exitDy=0;entryX=1;entryY=0;entryDx=0;entryDy=0;" edge="1" parent="1" source="6BjN83bHVvUFLkqBaeDq-4" target="6BjN83bHVvUFLkqBaeDq-6">
          <mxGeometry width="50" height="50" relative="1" as="geometry">
            <mxPoint x="2880" y="2590" as="sourcePoint" />
            <mxPoint x="2930" y="2540" as="targetPoint" />
          </mxGeometry>
        </mxCell>
        <mxCell id="6BjN83bHVvUFLkqBaeDq-19" value="" style="endArrow=classic;html=1;rounded=0;exitX=0;exitY=1;exitDx=0;exitDy=0;entryX=1;entryY=0;entryDx=0;entryDy=0;" edge="1" parent="1" source="6BjN83bHVvUFLkqBaeDq-3" target="6BjN83bHVvUFLkqBaeDq-4">
          <mxGeometry width="50" height="50" relative="1" as="geometry">
            <mxPoint x="2880" y="2590" as="sourcePoint" />
            <mxPoint x="2930" y="2540" as="targetPoint" />
          </mxGeometry>
        </mxCell>
        <mxCell id="6BjN83bHVvUFLkqBaeDq-20" value="" style="endArrow=classic;html=1;rounded=0;exitX=1;exitY=1;exitDx=0;exitDy=0;entryX=0;entryY=0;entryDx=0;entryDy=0;" edge="1" parent="1" source="6BjN83bHVvUFLkqBaeDq-3" target="6BjN83bHVvUFLkqBaeDq-5">
          <mxGeometry width="50" height="50" relative="1" as="geometry">
            <mxPoint x="2880" y="2590" as="sourcePoint" />
            <mxPoint x="2930" y="2540" as="targetPoint" />
          </mxGeometry>
        </mxCell>
        <mxCell id="6BjN83bHVvUFLkqBaeDq-21" value="" style="endArrow=classic;html=1;rounded=0;exitX=0;exitY=0.5;exitDx=0;exitDy=0;entryX=1;entryY=0;entryDx=0;entryDy=0;" edge="1" parent="1" source="6BjN83bHVvUFLkqBaeDq-1" target="6BjN83bHVvUFLkqBaeDq-3">
          <mxGeometry width="50" height="50" relative="1" as="geometry">
            <mxPoint x="2880" y="2590" as="sourcePoint" />
            <mxPoint x="2930" y="2540" as="targetPoint" />
          </mxGeometry>
        </mxCell>
        <mxCell id="6BjN83bHVvUFLkqBaeDq-22" value="" style="endArrow=classic;html=1;rounded=0;exitX=0;exitY=1;exitDx=0;exitDy=0;entryX=1;entryY=0;entryDx=0;entryDy=0;" edge="1" parent="1" source="6BjN83bHVvUFLkqBaeDq-7" target="6BjN83bHVvUFLkqBaeDq-8">
          <mxGeometry width="50" height="50" relative="1" as="geometry">
            <mxPoint x="2880" y="2590" as="sourcePoint" />
            <mxPoint x="2930" y="2540" as="targetPoint" />
          </mxGeometry>
        </mxCell>
        <mxCell id="6BjN83bHVvUFLkqBaeDq-23" value="" style="endArrow=classic;html=1;rounded=0;exitX=1;exitY=0.5;exitDx=0;exitDy=0;entryX=0.085;entryY=0.345;entryDx=0;entryDy=0;entryPerimeter=0;" edge="1" parent="1" source="6BjN83bHVvUFLkqBaeDq-1" target="6BjN83bHVvUFLkqBaeDq-7">
          <mxGeometry width="50" height="50" relative="1" as="geometry">
            <mxPoint x="2880" y="2590" as="sourcePoint" />
            <mxPoint x="2930" y="2540" as="targetPoint" />
          </mxGeometry>
        </mxCell>
        <mxCell id="6BjN83bHVvUFLkqBaeDq-25" value="" style="endArrow=classic;html=1;rounded=0;exitX=1;exitY=1;exitDx=0;exitDy=0;entryX=0;entryY=0;entryDx=0;entryDy=0;" edge="1" parent="1" source="6BjN83bHVvUFLkqBaeDq-7" target="6BjN83bHVvUFLkqBaeDq-9">
          <mxGeometry width="50" height="50" relative="1" as="geometry">
            <mxPoint x="2880" y="2590" as="sourcePoint" />
            <mxPoint x="2930" y="2540" as="targetPoint" />
          </mxGeometry>
        </mxCell>
        <mxCell id="6BjN83bHVvUFLkqBaeDq-26" value="" style="endArrow=classic;html=1;rounded=0;exitX=0;exitY=1;exitDx=0;exitDy=0;entryX=1;entryY=0;entryDx=0;entryDy=0;" edge="1" parent="1" source="6BjN83bHVvUFLkqBaeDq-9" target="6BjN83bHVvUFLkqBaeDq-10">
          <mxGeometry width="50" height="50" relative="1" as="geometry">
            <mxPoint x="2880" y="2590" as="sourcePoint" />
            <mxPoint x="2930" y="2540" as="targetPoint" />
          </mxGeometry>
        </mxCell>
        <mxCell id="6BjN83bHVvUFLkqBaeDq-27" value="" style="endArrow=classic;html=1;rounded=0;exitX=1;exitY=1;exitDx=0;exitDy=0;entryX=0;entryY=0;entryDx=0;entryDy=0;" edge="1" parent="1" source="6BjN83bHVvUFLkqBaeDq-10" target="6BjN83bHVvUFLkqBaeDq-11">
          <mxGeometry width="50" height="50" relative="1" as="geometry">
            <mxPoint x="2880" y="2590" as="sourcePoint" />
            <mxPoint x="2930" y="2540" as="targetPoint" />
          </mxGeometry>
        </mxCell>
        <mxCell id="6BjN83bHVvUFLkqBaeDq-28" value="" style="endArrow=classic;html=1;rounded=0;exitX=1;exitY=1;exitDx=0;exitDy=0;" edge="1" parent="1" source="6BjN83bHVvUFLkqBaeDq-9" target="6BjN83bHVvUFLkqBaeDq-13">
          <mxGeometry width="50" height="50" relative="1" as="geometry">
            <mxPoint x="2880" y="2590" as="sourcePoint" />
            <mxPoint x="2930" y="2540" as="targetPoint" />
          </mxGeometry>
        </mxCell>
        <mxCell id="6BjN83bHVvUFLkqBaeDq-29" value="" style="endArrow=classic;html=1;rounded=0;exitX=0;exitY=1;exitDx=0;exitDy=0;entryX=1;entryY=0;entryDx=0;entryDy=0;" edge="1" parent="1" source="6BjN83bHVvUFLkqBaeDq-13" target="6BjN83bHVvUFLkqBaeDq-15">
          <mxGeometry width="50" height="50" relative="1" as="geometry">
            <mxPoint x="2880" y="2590" as="sourcePoint" />
            <mxPoint x="2930" y="2540" as="targetPoint" />
          </mxGeometry>
        </mxCell>
        <mxCell id="6BjN83bHVvUFLkqBaeDq-30" value="" style="endArrow=classic;html=1;rounded=0;exitX=1;exitY=1;exitDx=0;exitDy=0;entryX=0;entryY=0;entryDx=0;entryDy=0;" edge="1" parent="1" source="6BjN83bHVvUFLkqBaeDq-13" target="6BjN83bHVvUFLkqBaeDq-16">
          <mxGeometry width="50" height="50" relative="1" as="geometry">
            <mxPoint x="2880" y="2590" as="sourcePoint" />
            <mxPoint x="2930" y="2540" as="targetPoint" />
          </mxGeometry>
        </mxCell>
        <mxCell id="6BjN83bHVvUFLkqBaeDq-31" value="" style="endArrow=classic;html=1;rounded=0;" edge="1" parent="1">
          <mxGeometry width="50" height="50" relative="1" as="geometry">
            <mxPoint x="2850" y="2735" as="sourcePoint" />
            <mxPoint x="2850" y="2815" as="targetPoint" />
          </mxGeometry>
        </mxCell>
        <mxCell id="6BjN83bHVvUFLkqBaeDq-57" value="&lt;font style=&quot;font-size: 16px;&quot;&gt;红色节点向上提，得到对应的2-3-4树&lt;/font&gt;" style="text;html=1;align=center;verticalAlign=middle;resizable=0;points=[];autosize=1;strokeColor=none;fillColor=none;" vertex="1" parent="1">
          <mxGeometry x="2860" y="2760" width="280" height="30" as="geometry" />
        </mxCell>
        <mxCell id="6BjN83bHVvUFLkqBaeDq-58" value="&lt;b&gt;&lt;font style=&quot;font-size: 16px;&quot; face=&quot;Verdana&quot;&gt;0&lt;/font&gt;&lt;/b&gt;" style="rounded=0;whiteSpace=wrap;html=1;" vertex="1" parent="1">
          <mxGeometry x="2550" y="3060" width="40" height="50" as="geometry" />
        </mxCell>
        <mxCell id="6BjN83bHVvUFLkqBaeDq-59" value="&lt;b&gt;&lt;font style=&quot;font-size: 16px;&quot; face=&quot;Verdana&quot;&gt;1&lt;/font&gt;&lt;/b&gt;" style="rounded=0;whiteSpace=wrap;html=1;" vertex="1" parent="1">
          <mxGeometry x="2590" y="3060" width="40" height="50" as="geometry" />
        </mxCell>
        <mxCell id="6BjN83bHVvUFLkqBaeDq-60" value="&lt;b&gt;&lt;font style=&quot;font-size: 16px;&quot; face=&quot;Verdana&quot;&gt;2&lt;/font&gt;&lt;/b&gt;" style="rounded=0;whiteSpace=wrap;html=1;" vertex="1" parent="1">
          <mxGeometry x="2629" y="2970" width="40" height="50" as="geometry" />
        </mxCell>
        <mxCell id="6BjN83bHVvUFLkqBaeDq-61" value="&lt;b&gt;&lt;font style=&quot;font-size: 16px;&quot; face=&quot;Verdana&quot;&gt;3&lt;/font&gt;&lt;/b&gt;" style="rounded=0;whiteSpace=wrap;html=1;" vertex="1" parent="1">
          <mxGeometry x="2670" y="3060" width="40" height="50" as="geometry" />
        </mxCell>
        <mxCell id="6BjN83bHVvUFLkqBaeDq-62" value="" style="endArrow=classic;html=1;rounded=0;exitX=0;exitY=0.5;exitDx=0;exitDy=0;entryX=1;entryY=0;entryDx=0;entryDy=0;" edge="1" parent="1" source="6BjN83bHVvUFLkqBaeDq-60" target="6BjN83bHVvUFLkqBaeDq-58">
          <mxGeometry width="50" height="50" relative="1" as="geometry">
            <mxPoint x="2880" y="2960" as="sourcePoint" />
            <mxPoint x="2930" y="2910" as="targetPoint" />
          </mxGeometry>
        </mxCell>
        <mxCell id="6BjN83bHVvUFLkqBaeDq-63" value="" style="endArrow=classic;html=1;rounded=0;exitX=1;exitY=0.5;exitDx=0;exitDy=0;entryX=0.75;entryY=0;entryDx=0;entryDy=0;" edge="1" parent="1" source="6BjN83bHVvUFLkqBaeDq-60" target="6BjN83bHVvUFLkqBaeDq-61">
          <mxGeometry width="50" height="50" relative="1" as="geometry">
            <mxPoint x="2880" y="2960" as="sourcePoint" />
            <mxPoint x="2930" y="2910" as="targetPoint" />
          </mxGeometry>
        </mxCell>
        <mxCell id="6BjN83bHVvUFLkqBaeDq-64" value="&lt;b&gt;&lt;font style=&quot;font-size: 16px;&quot; face=&quot;Verdana&quot;&gt;10&lt;/font&gt;&lt;/b&gt;" style="rounded=0;whiteSpace=wrap;html=1;" vertex="1" parent="1">
          <mxGeometry x="2994" y="3060" width="40" height="50" as="geometry" />
        </mxCell>
        <mxCell id="6BjN83bHVvUFLkqBaeDq-65" value="&lt;b&gt;&lt;font style=&quot;font-size: 16px;&quot; face=&quot;Verdana&quot;&gt;11&lt;/font&gt;&lt;/b&gt;" style="rounded=0;whiteSpace=wrap;html=1;" vertex="1" parent="1">
          <mxGeometry x="3034" y="3060" width="40" height="50" as="geometry" />
        </mxCell>
        <mxCell id="6BjN83bHVvUFLkqBaeDq-66" value="&lt;b&gt;&lt;font style=&quot;font-size: 16px;&quot; face=&quot;Verdana&quot;&gt;12&lt;/font&gt;&lt;/b&gt;" style="rounded=0;whiteSpace=wrap;html=1;" vertex="1" parent="1">
          <mxGeometry x="3074" y="3060" width="40" height="50" as="geometry" />
        </mxCell>
        <mxCell id="6BjN83bHVvUFLkqBaeDq-68" value="&lt;b&gt;&lt;font style=&quot;font-size: 16px;&quot; face=&quot;Verdana&quot;&gt;7&lt;/font&gt;&lt;/b&gt;" style="rounded=0;whiteSpace=wrap;html=1;" vertex="1" parent="1">
          <mxGeometry x="2870" y="3060" width="40" height="50" as="geometry" />
        </mxCell>
        <mxCell id="6BjN83bHVvUFLkqBaeDq-69" value="&lt;b&gt;&lt;font style=&quot;font-size: 16px;&quot; face=&quot;Verdana&quot;&gt;8&lt;/font&gt;&lt;/b&gt;" style="rounded=0;whiteSpace=wrap;html=1;" vertex="1" parent="1">
          <mxGeometry x="2910" y="3060" width="40" height="50" as="geometry" />
        </mxCell>
        <mxCell id="6BjN83bHVvUFLkqBaeDq-70" value="&lt;b&gt;&lt;font style=&quot;font-size: 16px;&quot; face=&quot;Verdana&quot;&gt;6&lt;/font&gt;&lt;/b&gt;" style="rounded=0;whiteSpace=wrap;html=1;" vertex="1" parent="1">
          <mxGeometry x="2870" y="2970" width="40" height="50" as="geometry" />
        </mxCell>
        <mxCell id="6BjN83bHVvUFLkqBaeDq-74" style="edgeStyle=orthogonalEdgeStyle;rounded=0;orthogonalLoop=1;jettySize=auto;html=1;exitX=0;exitY=1;exitDx=0;exitDy=0;entryX=0;entryY=0;entryDx=0;entryDy=0;" edge="1" parent="1" source="6BjN83bHVvUFLkqBaeDq-71" target="6BjN83bHVvUFLkqBaeDq-69">
          <mxGeometry relative="1" as="geometry" />
        </mxCell>
        <mxCell id="6BjN83bHVvUFLkqBaeDq-71" value="&lt;b&gt;&lt;font style=&quot;font-size: 16px;&quot; face=&quot;Verdana&quot;&gt;9&lt;/font&gt;&lt;/b&gt;" style="rounded=0;whiteSpace=wrap;html=1;" vertex="1" parent="1">
          <mxGeometry x="2910" y="2970" width="40" height="50" as="geometry" />
        </mxCell>
        <mxCell id="6BjN83bHVvUFLkqBaeDq-72" value="&lt;b&gt;&lt;font style=&quot;font-size: 16px;&quot; face=&quot;Verdana&quot;&gt;5&lt;/font&gt;&lt;/b&gt;" style="rounded=0;whiteSpace=wrap;html=1;" vertex="1" parent="1">
          <mxGeometry x="2780" y="3060" width="40" height="50" as="geometry" />
        </mxCell>
        <mxCell id="6BjN83bHVvUFLkqBaeDq-73" value="" style="endArrow=classic;html=1;rounded=0;exitX=0;exitY=0.5;exitDx=0;exitDy=0;entryX=0.5;entryY=0;entryDx=0;entryDy=0;" edge="1" parent="1" source="6BjN83bHVvUFLkqBaeDq-70" target="6BjN83bHVvUFLkqBaeDq-72">
          <mxGeometry width="50" height="50" relative="1" as="geometry">
            <mxPoint x="2860" y="2900" as="sourcePoint" />
            <mxPoint x="2910" y="2850" as="targetPoint" />
          </mxGeometry>
        </mxCell>
        <mxCell id="6BjN83bHVvUFLkqBaeDq-75" value="" style="endArrow=classic;html=1;rounded=0;exitX=1;exitY=0.5;exitDx=0;exitDy=0;entryX=0.5;entryY=0;entryDx=0;entryDy=0;" edge="1" parent="1" source="6BjN83bHVvUFLkqBaeDq-71" target="6BjN83bHVvUFLkqBaeDq-65">
          <mxGeometry width="50" height="50" relative="1" as="geometry">
            <mxPoint x="2840" y="2980" as="sourcePoint" />
            <mxPoint x="2890" y="2930" as="targetPoint" />
          </mxGeometry>
        </mxCell>
        <mxCell id="6BjN83bHVvUFLkqBaeDq-76" value="&lt;b&gt;&lt;font style=&quot;font-size: 16px;&quot; face=&quot;Verdana&quot;&gt;4&lt;/font&gt;&lt;/b&gt;" style="rounded=0;whiteSpace=wrap;html=1;" vertex="1" parent="1">
          <mxGeometry x="2760" y="2860" width="40" height="50" as="geometry" />
        </mxCell>
        <mxCell id="6BjN83bHVvUFLkqBaeDq-77" value="" style="endArrow=classic;html=1;rounded=0;exitX=0;exitY=0.5;exitDx=0;exitDy=0;entryX=0.5;entryY=0;entryDx=0;entryDy=0;" edge="1" parent="1" source="6BjN83bHVvUFLkqBaeDq-76" target="6BjN83bHVvUFLkqBaeDq-60">
          <mxGeometry width="50" height="50" relative="1" as="geometry">
            <mxPoint x="2860" y="2860" as="sourcePoint" />
            <mxPoint x="2910" y="2810" as="targetPoint" />
          </mxGeometry>
        </mxCell>
        <mxCell id="6BjN83bHVvUFLkqBaeDq-78" value="" style="endArrow=classic;html=1;rounded=0;exitX=1;exitY=0.5;exitDx=0;exitDy=0;entryX=0;entryY=0;entryDx=0;entryDy=0;" edge="1" parent="1" source="6BjN83bHVvUFLkqBaeDq-76" target="6BjN83bHVvUFLkqBaeDq-71">
          <mxGeometry width="50" height="50" relative="1" as="geometry">
            <mxPoint x="2860" y="2860" as="sourcePoint" />
            <mxPoint x="2910" y="2810" as="targetPoint" />
          </mxGeometry>
        </mxCell>
      </root>
    </mxGraphModel>
  </diagram>
</mxfile>
